HIERARCHY
ROOT Hips
{
	OFFSET 53.831799 -13.242517 96.855103
	CHANNELS 6 Xposition Yposition Zposition Xrotation Yrotation Zrotation
	JOINT spine
	{
		OFFSET 0.000000 -0.458068 7.965683
		CHANNELS 3 Xrotation Yrotation Zrotation
		JOINT spine1
		{
			OFFSET 0.000000 -0.000002 10.243103
			CHANNELS 3 Xrotation Yrotation Zrotation
			JOINT spine2
			{
				OFFSET 0.000000 -0.000001 9.814751
				CHANNELS 3 Xrotation Yrotation Zrotation
				JOINT Neck
				{
					OFFSET 0.000000 -1.201385 25.198601
					CHANNELS 3 Xrotation Yrotation Zrotation
					JOINT Head
					{
						OFFSET 0.000000 -0.000001 7.613144
						CHANNELS 3 Xrotation Yrotation Zrotation
						End Site
						{
							OFFSET 0.000000 6.077327 18.428101
						}
					}
				}
				JOINT RightShoulder
				{
					OFFSET -4.132702 0.575449 10.599205
					CHANNELS 3 Xrotation Yrotation Zrotation
					JOINT RightArm
					{
						OFFSET 0.000000 -0.000003 13.901794
						CHANNELS 3 Xrotation Yrotation Zrotation
						JOINT RightArmRoll
						{
							OFFSET 0.000000 -0.000001 7.017883
							CHANNELS 3 Xrotation Yrotation Zrotation
							JOINT RightForeArm
							{
								OFFSET 0.000000 -0.000003 20.440598
								CHANNELS 3 Xrotation Yrotation Zrotation
								JOINT RightForeArmRoll
								{
									OFFSET 0.000000 -0.000002 7.875153
									CHANNELS 3 Xrotation Yrotation Zrotation
									JOINT RightHand
									{
										OFFSET 0.000000 -0.000002 15.803696
										CHANNELS 3 Xrotation Yrotation Zrotation
										End Site
										{
											OFFSET 0.000000 0.000000 0.100006
										}
									}
								}
							}
						}
					}
				}
				JOINT LeftShoulder
				{
					OFFSET 4.132702 0.575449 10.599205
					CHANNELS 3 Xrotation Yrotation Zrotation
					JOINT LeftArm
					{
						OFFSET 0.000000 -0.000003 13.901794
						CHANNELS 3 Xrotation Yrotation Zrotation
						JOINT LeftArmRoll
						{
							OFFSET 0.000000 -0.000001 7.017883
							CHANNELS 3 Xrotation Yrotation Zrotation
							JOINT LeftForeArm
							{
								OFFSET 0.000000 -0.000003 20.440598
								CHANNELS 3 Xrotation Yrotation Zrotation
								JOINT LeftForeArmRoll
								{
									OFFSET 0.000000 -0.000002 7.875168
									CHANNELS 3 Xrotation Yrotation Zrotation
									JOINT LeftHand
									{
										OFFSET 0.000000 -0.000002 15.803696
										CHANNELS 3 Xrotation Yrotation Zrotation
										End Site
										{
											OFFSET 0.000000 0.000000 0.100006
										}
									}
								}
							}
						}
					}
				}
			}
		}
	}
	JOINT RightUpLeg
	{
		OFFSET -7.060482 1.086101 -1.294701
		CHANNELS 3 Xrotation Yrotation Zrotation
		JOINT RightUpLegRoll
		{
			OFFSET 0.000000 -0.000003 18.530800
			CHANNELS 3 Xrotation Yrotation Zrotation
			JOINT RightLeg
			{
				OFFSET 0.000000 0.000003 -22.947601
				CHANNELS 3 Xrotation Yrotation Zrotation
				JOINT RightLegRoll
				{
					OFFSET 0.000000 -0.000004 23.022598
					CHANNELS 3 Xrotation Yrotation Zrotation
					JOINT RightFoot
					{
						OFFSET 0.000000 -0.000003 19.162506
						CHANNELS 3 Xrotation Yrotation Zrotation
						JOINT RightToeBase
						{
							OFFSET 0.000000 -0.000003 16.018799
							CHANNELS 3 Xrotation Yrotation Zrotation
							End Site
							{
								OFFSET 0.006790 0.894205 7.757812
							}
						}
					}
				}
			}
		}
	}
	JOINT LeftUpLeg
	{
		OFFSET 7.060482 1.086101 -1.294701
		CHANNELS 3 Xrotation Yrotation Zrotation
		JOINT LeftUpLegRoll
		{
			OFFSET 0.000000 -0.000003 18.530899
			CHANNELS 3 Xrotation Yrotation Zrotation
			JOINT LeftLeg
			{
				OFFSET 0.000000 -0.000004 22.947502
				CHANNELS 3 Xrotation Yrotation Zrotation
				JOINT LeftLegRoll
				{
					OFFSET 0.000000 -0.000004 23.235504
					CHANNELS 3 Xrotation Yrotation Zrotation
					JOINT LeftFoot
					{
						OFFSET 0.000000 -0.000004 18.949600
						CHANNELS 3 Xrotation Yrotation Zrotation
						JOINT LeftToeBase
						{
							OFFSET 0.000000 -0.000002 16.018799
							CHANNELS 3 Xrotation Yrotation Zrotation
							End Site
							{
								OFFSET -0.030430 0.894204 7.757812
							}
						}
					}
				}
			}
		}
	}
}
MOTION
Frames: 13
Frame Time: 0.041667
54.032906 -10.482617 97.014702 -4.476941 0.434877 2.593189 -1.197438 -0.164738 -0.089369 1.608988 -0.336606 -0.179099 3.254067 -0.338650 -0.175256 14.939241 6.813582 0.580546 6.102969 -4.701245 1.145306 -14.812973 -75.488528 -17.910469 -82.136460 -109.395670 -59.678402 0.000001 0.000000 -0.000000 4.079936 0.825287 -0.984823 -0.000005 0.000004 -3.006669 -5.000176 -8.000090 -0.000009 -4.259233 64.989339 5.603812 -53.394505 111.941036 44.914808 0.000002 -0.000000 0.000000 0.051286 7.009318 0.780657 -0.000004 0.000002 3.008890 -5.000215 7.999093 -0.000098 3.253725 -178.449511 2.620344 -179.999991 0.000005 -1.131006 174.926554 -1.868657 -0.438868 -0.000001 0.000003 0.097299 70.287482 6.885130 2.045931 25.456955 -7.355614 0.000000 5.487962 175.368235 -1.764193 -0.000005 -0.000004 -1.227050 -4.873455 1.657669 0.185566 -0.000003 0.000002 -0.040600 68.601006 -6.920667 -2.067846 25.456953 7.355616 -0.000010 
54.025703 -10.492119 97.016594 -4.463752 0.439766 2.596300 -1.199486 -0.167074 -0.089951 1.606298 -0.339297 -0.180780 3.251368 -0.341360 -0.176891 14.993329 6.819149 0.577399 6.041291 -4.697893 1.142033 -14.806095 -75.467436 -17.902551 -82.321005 -109.181339 -59.669393 -0.000002 -0.000000 -0.000002 4.147455 0.935098 -0.987054 -0.000003 0.000003 -3.006670 -5.000176 -8.000090 -0.000013 -4.264397 64.983984 5.609210 -53.403439 111.709916 44.727815 -0.000000 0.000000 0.000000 0.046598 6.898368 0.783122 0.000000 0.000002 3.008891 -5.000217 7.999092 -0.000098 3.214865 -178.453445 2.606138 -179.999991 0.000005 -1.131006 174.880136 -1.853584 -0.441053 -0.000001 0.000003 0.099446 70.309243 6.885097 2.044877 25.456952 -7.355615 0.000001 5.477147 175.363167 -1.766975 -0.000005 -0.000005 -1.227051 -4.874997 1.658911 0.185562 -0.000003 0.000002 -0.040600 68.600590 -6.920673 -2.067876 25.456953 7.355613 -0.000010 
54.040104 -10.471117 97.008995 -4.450255 0.444855 2.599522 -1.201686 -0.169492 -0.090553 1.603389 -0.342035 -0.182563 3.248459 -0.344119 -0.178628 15.048001 6.824157 0.574231 5.978529 -4.694015 1.138683 -14.799565 -75.447868 -17.895026 -82.508391 -108.965682 -59.664967 -0.000002 0.000002 0.000001 4.216641 1.042342 -0.989574 -0.000003 0.000002 -3.006671 -5.000177 -8.000090 -0.000010 -4.268310 64.978062 5.613124 -53.408606 111.478051 44.536552 -0.000001 0.000000 -0.000001 0.039939 6.787979 0.785626 -0.000001 0.000001 3.008890 -5.000212 7.999094 -0.000098 3.175014 -178.458363 2.591286 -179.999991 0.000005 -1.131006 174.832175 -1.838506 -0.444245 -0.000001 0.000003 0.101671 70.331879 6.885095 2.043674 25.456953 -7.355615 -0.000000 5.465999 175.357102 -1.769933 -0.000005 -0.000004 -1.227050 -4.876602 1.660152 0.185552 -0.000003 0.000002 -0.040599 68.600173 -6.920684 -2.067801 25.456953 7.355611 -0.000010 
54.056602 -10.490018 97.010689 -4.436546 0.450082 2.602800 -1.204005 -0.171965 -0.091168 1.600329 -0.344807 -0.184417 3.245400 -0.346913 -0.180434 15.103167 6.828775 0.571032 5.915040 -4.689749 1.135285 -14.793266 -75.429324 -17.887779 -82.698469 -108.749323 -59.664182 -0.000001 -0.000001 -0.000003 4.286982 1.147790 -0.992381 -0.000002 0.000004 -3.006669 -5.000175 -8.000090 -0.000007 -4.271330 64.971765 5.615986 -53.408480 111.246351 44.339450 -0.000001 -0.000001 0.000001 0.031902 6.677989 0.788145 -0.000000 0.000001 3.008890 -5.000217 7.999093 -0.000098 3.134475 -178.463294 2.576031 -179.999991 0.000005 -1.131006 174.783161 -1.822419 -0.447368 -0.000001 0.000003 0.103951 70.355047 6.885121 2.042443 25.456952 -7.355617 0.000001 5.454610 175.351064 -1.772959 -0.000005 -0.000004 -1.227050 -4.878245 1.661403 0.185544 -0.000003 0.000002 -0.040599 68.599736 -6.920652 -2.067824 25.456957 7.355613 -0.000009 
54.056805 -10.492015 96.988892 -4.422702 0.455391 2.606121 -1.206376 -0.174470 -0.091791 1.597179 -0.347600 -0.186311 3.242262 -0.349726 -0.182281 15.158430 6.833175 0.567846 5.851118 -4.685273 1.131861 -14.787208 -75.411477 -17.880788 -82.890363 -108.532812 -59.665616 0.000001 -0.000000 -0.000001 4.358002 1.252199 -0.995462 -0.000002 0.000001 -3.006672 -5.000177 -8.000089 -0.000010 -4.273854 64.965180 5.618266 -53.403927 111.015292 44.137376 0.000001 -0.000000 0.000000 0.023085 6.568220 0.790653 0.000000 0.000002 3.008890 -5.000216 7.999093 -0.000098 3.093529 -178.468239 2.560553 -179.999991 0.000005 -1.131006 174.733533 -1.806345 -0.450470 -0.000001 0.000003 0.106261 70.378631 6.885107 2.041280 25.456953 -7.355615 0.000000 5.443064 175.344999 -1.776021 -0.000005 -0.000005 -1.227050 -4.879929 1.662645 0.185532 -0.000003 0.000002 -0.040599 68.599319 -6.920662 -2.067852 25.456952 7.355611 -0.000009 
54.060505 -10.497217 96.991394 -4.408832 0.460721 2.609451 -1.208768 -0.176984 -0.092417 1.594010 -0.350395 -0.188217 3.239093 -0.352545 -0.184139 15.213889 6.837510 0.564628 5.787083 -4.680750 1.128442 -14.781187 -75.393739 -17.873845 -83.083166 -108.316787 -59.667877 0.000001 -0.000000 0.000001 4.429203 1.356348 -0.998807 -0.000004 0.000003 -3.006672 -5.000182 -8.000087 -0.000008 -4.276236 64.958603 5.620368 -53.399368 110.783831 43.935185 -0.000001 -0.000001 -0.000001 0.014070 6.458509 0.793131 -0.000000 0.000002 3.008889 -5.000217 7.999093 -0.000098 3.052488 -178.473157 2.545031 -179.999991 0.000005 -1.131006 174.683741 -1.789279 -0.453471 -0.000000 0.000003 0.108580 70.402223 6.885109 2.040119 25.456955 -7.355615 0.000001 5.431500 175.337923 -1.779183 -0.000005 -0.000004 -1.227049 -4.881613 1.663896 0.185521 -0.000003 0.000002 -0.040599 68.598896 -6.920672 -2.067780 25.456957 7.355613 -0.000010 
54.060303 -10.505417 97.007599 -4.395024 0.466014 2.612766 -1.211127 -0.179480 -0.093040 1.590889 -0.353182 -0.190102 3.235963 -0.355353 -0.185977 15.269159 6.841968 0.561420 5.723276 -4.676317 1.125050 -14.774993 -75.375604 -17.866697 -83.276187 -108.101868 -59.669427 -0.000000 -0.000000 0.000001 4.500096 1.461014 -1.002403 -0.000004 0.000003 -3.006672 -5.000176 -8.000087 -0.000007 -4.278868 64.952114 5.622780 -53.389625 110.554303 43.727305 0.000001 -0.000000 0.000001 0.005451 6.348690 0.795568 -0.000002 0.000002 3.008890 -5.000216 7.999092 -0.000098 3.011646 -178.478102 2.529640 -179.999991 0.000005 -1.131006 174.634249 -1.773194 -0.456525 -0.000001 0.000003 0.110882 70.425712 6.885092 2.038861 25.456953 -7.355615 0.000000 5.419999 175.331871 -1.782222 -0.000005 -0.000004 -1.227060 -4.883277 1.665148 0.185512 -0.000003 0.000002 -0.040599 68.598465 -6.920643 -2.067800 25.456957 7.355615 -0.000010 
54.060505 -10.507717 97.002396 -4.381370 0.471208 2.616023 -1.213408 -0.181937 -0.093652 1.587870 -0.355944 -0.191937 3.232954 -0.358136 -0.187764 15.324136 6.846700 0.558203 5.659999 -4.672163 1.121713 -14.768795 -75.356849 -17.859533 -83.468709 -107.888575 -59.669106 0.000001 0.000000 -0.000001 4.570194 1.566944 -1.006244 -0.000003 0.000003 -3.006672 -5.000175 -8.000089 -0.000009 -4.282136 64.945912 5.625938 -53.379329 110.325771 43.518738 0.000001 0.000001 0.000001 -0.002173 6.238580 0.797950 0.000001 0.000002 3.008891 -5.000214 7.999094 -0.000098 2.971297 -178.483047 2.514539 -179.999991 0.000005 -1.131006 174.585523 -1.757128 -0.459516 -0.000000 0.000003 0.113146 70.448675 6.885119 2.037745 25.456953 -7.355613 -0.000000 5.408681 175.325806 -1.785225 -0.000005 -0.000004 -1.227060 -4.884921 1.666398 0.185502 -0.000003 0.000002 -0.040599 68.598049 -6.920650 -2.067828 25.456957 7.355613 -0.000010 
54.063103 -10.527617 97.008400 -4.367972 0.476247 2.619187 -1.215555 -0.184330 -0.094248 1.585021 -0.358668 -0.193691 3.230105 -0.360879 -0.189471 15.378620 6.851878 0.554983 5.597579 -4.668422 1.118449 -14.762323 -75.336870 -17.852053 -83.659251 -107.677563 -59.664858 -0.000000 0.000001 0.000001 4.639017 1.674919 -1.010317 -0.000004 0.000002 -3.006669 -5.000177 -8.000090 -0.000008 -4.286424 64.940182 5.630294 -53.367362 110.099282 43.308276 0.000000 0.000000 -0.000000 -0.008219 6.128023 0.800272 -0.000001 0.000002 3.008890 -5.000215 7.999094 -0.000098 2.931736 -178.487979 2.499926 -179.999991 0.000005 -1.131006 174.538053 -1.742058 -0.462549 -0.000001 0.000003 0.115348 70.471010 6.885120 2.036561 25.456955 -7.355616 0.000001 5.397623 175.320738 -1.788052 -0.000005 -0.000004 -1.227060 -4.886494 1.667640 0.185495 -0.000003 0.000002 -0.040599 68.597632 -6.920657 -2.067757 25.456955 7.355613 -0.000009 
54.048103 -10.523922 97.002998 -4.354911 0.481069 2.622245 -1.217547 -0.186634 -0.094824 1.582421 -0.361337 -0.195333 3.227496 -0.363568 -0.191069 15.432527 6.857664 0.551756 5.536330 -4.665273 1.115285 -14.755451 -75.315178 -17.844098 -83.847498 -107.469325 -59.655760 0.000001 -0.000000 -0.000001 4.706060 1.785715 -1.014620 -0.000003 0.000004 -3.006669 -5.000175 -8.000088 -0.000005 -4.292068 64.935100 5.636264 -53.356376 109.874487 43.098839 0.000000 -0.000000 -0.000001 -0.012096 6.016840 0.802532 -0.000000 0.000002 3.008890 -5.000214 7.999094 -0.000098 2.893267 -178.492924 2.485959 -179.999991 0.000005 -1.131006 174.492263 -1.727987 -0.464592 -0.000001 0.000003 0.117464 70.492381 6.885129 2.035439 25.456953 -7.355615 0.000001 5.386963 175.314686 -1.790874 -0.000005 -0.000004 -1.227060 -4.888008 1.668872 0.185491 -0.000003 0.000002 -0.040599 68.597215 -6.920666 -2.067783 25.456950 7.355613 -0.000009 
54.048306 -10.538921 96.999695 -4.342286 0.485615 2.625163 -1.219317 -0.188824 -0.095371 1.580111 -0.363938 -0.196834 3.225197 -0.366187 -0.192525 15.485553 6.864234 0.548534 5.476590 -4.662873 1.112243 -14.748216 -75.291443 -17.835712 -84.031886 -107.264487 -59.639675 -0.000001 0.000000 0.000001 4.770849 1.900080 -1.019130 -0.000003 0.000004 -3.006671 -5.000177 -8.000087 -0.000009 -4.299507 64.930893 5.644345 -53.345287 109.652465 42.889237 -0.000001 0.000001 0.000001 -0.013216 5.904875 0.804739 -0.000002 0.000003 3.008891 -5.000216 7.999094 -0.000097 2.856187 -178.496872 2.472874 -179.999991 0.000005 -1.131006 174.448646 -1.713923 -0.467559 -0.000001 0.000003 0.119472 70.512571 6.885112 2.034484 25.456952 -7.355616 0.000001 5.376786 175.309646 -1.793469 -0.000005 -0.000004 -1.227060 -4.889422 1.670104 0.185491 -0.000003 0.000002 -0.040599 68.596792 -6.920675 -2.067711 25.456955 7.355613 -0.000010 
54.058903 -10.545618 96.999695 -4.330200 0.489827 2.627910 -1.220816 -0.190879 -0.095886 1.578182 -0.366458 -0.198162 3.223257 -0.368723 -0.193811 15.537601 6.871739 0.545311 5.418666 -4.661379 1.109341 -14.740457 -75.265167 -17.826710 -84.211069 -107.063659 -59.614745 0.000001 0.000000 -0.000001 4.832886 2.018806 -1.023848 -0.000003 0.000001 -3.006671 -5.000176 -8.000090 -0.000011 -4.309094 64.927703 5.654957 -53.334775 109.433516 42.680237 0.000001 -0.000000 0.000001 -0.010980 5.791940 0.806897 -0.000004 0.000003 3.008891 -5.000215 7.999093 -0.000098 2.820802 -178.499836 2.460848 -179.999991 0.000005 -1.131006 174.407596 -1.701867 -0.469613 -0.000001 0.000003 0.121347 70.531293 6.885098 2.033524 25.456955 -7.355616 0.000001 5.367203 175.304591 -1.795912 -0.000005 -0.000004 -1.227060 -4.890725 1.671316 0.185494 -0.000003 0.000002 -0.040599 68.596362 -6.920646 -2.067832 25.456955 7.355614 -0.000009 
54.048805 -10.563118 96.999100 -4.318739 0.493643 2.630449 -1.222007 -0.192772 -0.096359 1.576673 -0.368880 -0.199287 3.221758 -0.371160 -0.194896 15.588384 6.880369 0.542104 5.362877 -4.660939 1.106602 -14.732172 -75.235941 -17.817064 -84.384132 -106.867264 -59.579296 -0.000001 0.000000 0.000000 4.891690 2.142645 -1.028745 -0.000005 0.000004 -3.006668 -5.000179 -8.000088 -0.000010 -4.321178 64.925647 5.668541 -53.327863 109.217382 42.475099 -0.000001 0.000000 0.000000 -0.004811 5.677880 0.809018 0.000000 0.000002 3.008891 -5.000213 7.999093 -0.000098 2.787386 -178.502773 2.449988 -179.999991 0.000005 -1.131006 174.369662 -1.690812 -0.471669 -0.000001 0.000003 0.123067 70.548211 6.885120 2.032678 25.456952 -7.355616 0.000000 5.358313 175.300534 -1.798078 -0.000005 -0.000004 -1.227060 -4.891889 1.672529 0.185503 -0.000003 0.000002 -0.040599 68.595938 -6.920655 -2.067862 25.456952 7.355613 -0.000009 
